<svg preserveAspectRatio="xMidYMid meet" data-bbox="20 19.998 160.001 160.002" viewBox="20 19.998 160.001 160.002" height="200" width="200" xmlns="http://www.w3.org/2000/svg" data-type="color" role="presentation" aria-hidden="true"><defs><style>#comp-lcp41mi6 svg [data-color="1"]</style></defs>
                <g>
                    <path d="M23.81 58.095a3.81 3.81 0 0 1-3.81-3.81C20 35.38 35.381 20 54.286 20a3.81 3.81 0 1 1 0 7.62c-14.704 0-26.667 11.963-26.667 26.667a3.808 3.808 0 0 1-3.809 3.808z" fill="#112F5B" data-color="1"></path>
                    <path d="M176.19 58.095a3.81 3.81 0 0 1-3.81-3.81c0-14.704-11.962-26.667-26.667-26.667a3.81 3.81 0 1 1 0-7.62C164.619 20 180 35.38 180 54.286a3.809 3.809 0 0 1-3.81 3.809z" fill="#112F5B" data-color="1"></path>
                    <path d="M54.286 139.365c-18.905 0-34.286-15.38-34.286-34.286a3.81 3.81 0 1 1 7.62 0c0 14.704 11.962 26.667 26.667 26.667a3.81 3.81 0 1 1-.001 7.619z" fill="#112F5B" data-color="1"></path>
                    <path d="M54.286 180a3.81 3.81 0 0 1-3.81-3.81v-40.635a3.81 3.81 0 1 1 7.62 0v40.635a3.81 3.81 0 0 1-3.81 3.81z" fill="#112F5B" data-color="1"></path>
                    <path d="M54.286 180a3.81 3.81 0 0 1-2.693-6.504l40.635-40.635a3.81 3.81 0 0 1 5.387 5.388L56.98 178.884A3.8 3.8 0 0 1 54.286 180z" fill="#112F5B" data-color="1"></path>
                    <path d="M145.714 139.365a3.81 3.81 0 1 1 0-7.62c14.704 0 26.667-11.963 26.667-26.667a3.81 3.81 0 1 1 7.62 0c-.001 18.907-15.382 34.287-34.287 34.287z" fill="#112F5B" data-color="1"></path>
                    <path d="M145.714 139.365H94.921a3.81 3.81 0 1 1 0-7.62h50.794a3.81 3.81 0 1 1-.001 7.62z" fill="#112F5B" data-color="1"></path>
                    <path d="M145.714 27.619H54.286a3.81 3.81 0 1 1 0-7.619h91.429a3.81 3.81 0 1 1-.001 7.619z" fill="#112F5B" data-color="1"></path>
                    <path d="M176.19 108.889a3.81 3.81 0 0 1-3.81-3.81V54.286a3.81 3.81 0 1 1 7.62 0v50.794a3.809 3.809 0 0 1-3.81 3.809z" fill="#112F5B" data-color="1"></path>
                    <path d="M23.81 108.889a3.81 3.81 0 0 1-3.81-3.81V54.286a3.81 3.81 0 1 1 7.62 0v50.794a3.81 3.81 0 0 1-3.81 3.809z" fill="#112F5B" data-color="1"></path>
                    <path d="M100 119.048c-21.706 0-39.365-17.659-39.365-39.365S78.294 40.317 100 40.317s39.365 17.659 39.365 39.365-17.659 39.366-39.365 39.366zm0-71.111c-17.505 0-31.746 14.241-31.746 31.746S82.495 111.429 100 111.429s31.746-14.241 31.746-31.746S117.505 47.937 100 47.937z" fill="#112F5B" data-color="1"></path>
                    <path d="M133.2 72.063H66.794a3.81 3.81 0 1 1 0-7.62H133.2a3.81 3.81 0 1 1 0 7.62z" fill="#112F5B" data-color="1"></path>
                    <path d="M133.2 94.921H66.79a3.81 3.81 0 1 1 0-7.62h66.41a3.81 3.81 0 1 1 0 7.62z" fill="#112F5B" data-color="1"></path>
                    <path d="M100 119.048a3.81 3.81 0 0 1-2.927-1.371c-7.996-9.596-13.581-25.22-13.581-37.994s5.585-28.398 13.581-37.994a3.809 3.809 0 0 1 5.854 0c7.996 9.596 13.581 25.22 13.581 37.994s-5.585 28.398-13.581 37.994a3.81 3.81 0 0 1-2.927 1.371zm0-68.456c-5.291 8.277-8.889 19.753-8.889 29.09s3.598 20.813 8.889 29.09c5.291-8.277 8.889-19.753 8.889-29.09s-3.598-20.813-8.889-29.09z" fill="#112F5B" data-color="1"></path>
                </g>
            </svg>