<svg preserveAspectRatio="xMidYMid meet" data-bbox="24.096 13.345 153 173.106" viewBox="24.096 13.345 153 173.106" height="200" width="200" xmlns="http://www.w3.org/2000/svg" data-type="color" role="presentation" aria-hidden="true"><defs><style>#comp-lcp3t04p svg [data-color="1"]
                #comp-lcp3t04p svg [data-color="2"]</style></defs>
                <g>
                    <path fill="#FBA871" d="M24.096 13.345v150.369h24.751v-12.225H36.261V25.57H67.89V13.345H24.096z" data-color="1"></path>
                    <path fill="#FBA871" d="M140.151 13.345h-31.629V25.57h31.629v10.541h12.165V13.345h-12.165z" data-color="1"></path>
                    <path fill="#7586FF" d="M48.876 36.082v150.369H92.67v-12.225H61.041V48.307H92.67V36.082H48.876z" data-color="2"></path>
                    <path fill="#7586FF" d="M164.931 36.082h-31.629v12.225h31.629v125.919h-31.629v12.225h43.794V36.082h-12.165z" data-color="2"></path>
                    <path fill="#FBA871" d="M151.33 74.474v3.373H79.423v-3.373h71.907z" data-color="1"></path>
                    <path fill="#FBA871" d="M151.33 87.272v3.173H78.34v-3.173h72.99z" data-color="1"></path>
                    <path fill="#FBA871" d="M151.33 100.069v3.173H78.34v-3.173h72.99z" data-color="1"></path>
                    <path fill="#FBA871" d="M114.136 112.866v3.173H78.34v-3.173h35.796z" data-color="1"></path>
                    <path fill="#FBA871" d="M151.191 112.866v3.173h-28.978v-3.173h28.978z" data-color="1"></path>
                    <path fill="#FBA871" d="M151.33 125.664v3.173H78.34v-3.173h72.99z" data-color="1"></path>
                    <path fill="#FBA871" d="M151.33 138.461v3.173H78.34v-3.173h72.99z" data-color="1"></path>
                    <path fill="#FBA871" d="M132.14 151.141v3.291h-53.8v-3.291h53.8z" data-color="1"></path>
                    <path fill="#FBA871" d="M140.432 151.258v3.173h-3.158v-3.173h3.158z" data-color="1"></path>
                    <path fill="#FBA871" d="M145.737 151.258v3.173h-3.158v-3.173h3.158z" data-color="1"></path>
                    <path fill="#FBA871" d="M151.041 151.258v3.173h-3.158v-3.173h3.158z" data-color="1"></path>
                    <path fill="#FBA871" d="M119.441 114.453c0 .876-.707 1.587-1.579 1.587s-1.579-.71-1.579-1.587c0-.876.707-1.587 1.579-1.587s1.579.71 1.579 1.587z" data-color="1"></path>
                </g>
            </svg>